<?xml version="1.0" standalone="no"?>
<!DOCTYPE svg PUBLIC "-//W3C//DTD SVG 20010904//EN"
 "http://www.w3.org/TR/2001/REC-SVG-20010904/DTD/svg10.dtd">
<svg version="1.0" xmlns="http://www.w3.org/2000/svg"
 width="500.000000pt" height="500.000000pt" viewBox="0 0 500.000000 500.000000"
 preserveAspectRatio="xMidYMid meet">
<metadata>
Created by potrace 1.14, written by Peter Selinger 2001-2017
</metadata>
<g transform="translate(0.000000,500.000000) scale(0.100000,-0.100000)"
fill="#000000" stroke="none">
<path d="M2052 3973 c-6 -27 -39 -204 -73 -395 l-64 -348 -292 0 -293 0 0
-265 0 -265 240 0 c185 0 240 -3 240 -12 0 -13 -46 -266 -55 -305 l-5 -23
-280 0 -280 0 0 -260 0 -260 230 0 c127 0 230 -2 230 -5 0 -3 -31 -175 -70
-384 -38 -208 -70 -386 -70 -395 0 -14 27 -16 269 -16 206 0 270 3 273 13 3 6
36 186 74 400 l69 387 167 0 c134 0 168 -3 168 -13 0 -8 -31 -182 -70 -387
-38 -205 -70 -379 -70 -387 0 -11 48 -13 272 -11 l273 3 75 398 75 397 298 0
297 0 -2 258 -3 257 -248 3 -247 2 5 23 c6 28 55 303 55 311 0 3 128 6 285 6
l285 0 -2 263 -3 262 -234 3 -233 2 5 23 c3 12 36 182 72 377 36 195 68 363
71 373 5 16 -12 17 -270 17 l-275 0 -7 -37 c-4 -21 -37 -198 -74 -393 l-65
-355 -169 -3 -168 -2 6 27 c3 16 35 183 71 373 36 190 67 355 70 368 l5 22
-274 0 -274 0 -10 -47z m638 -1285 c0 -10 -44 -255 -55 -305 -5 -23 -7 -23
-170 -23 -91 0 -165 4 -165 8 0 10 47 274 55 310 5 22 7 22 170 22 118 0 165
-3 165 -12z"/>
</g>
</svg>
